<svg xmlns="http://www.w3.org/2000/svg" viewBox="0 0 192 192">
  <defs>
    <style>
      path {
        fill: #000;
      }
      line {
        fill: none;
        stroke: #000;
        stroke-miterlimit: 10;
        stroke-width: 6px;
      }
      @media (prefers-color-scheme: dark) {
        path {
          fill: #fff;
        }
        line {
          stroke: #fff;
        } 
      }
    </style>
  </defs>
  <path d="M82,50.26q5,5,5,14.94a23.4,23.4,0,0,1-3.19,12.31,21.67,21.67,0,0,1-8.71,8.19A25.73,25.73,0,0,1,63,88.59a25.39,25.39,0,0,1-9.79-2.06,24,24,0,0,1-8.14-5.36l5.15-8.25a16,16,0,0,0,5.46,4.23A15.74,15.74,0,0,0,62.8,78.9,13.61,13.61,0,0,0,72.69,75a13.87,13.87,0,0,0,4-10.41,12.46,12.46,0,0,0-3.45-9.22q-3.45-3.45-9.43-3.45a25.24,25.24,0,0,0-8.75,1.54L54.77,53,69.91,29.55H49.1V20H84.64L69.09,44.9A19.18,19.18,0,0,1,82,50.26Z"/>
  <path d="M135.1,131.16q5.06,4.93,5.05,14.94A23.49,23.49,0,0,1,137,158.41a21.74,21.74,0,0,1-8.71,8.19,25.76,25.76,0,0,1-12.11,2.88,25.21,25.21,0,0,1-9.79-2.06,24,24,0,0,1-8.13-5.35l5.15-8.25a17.15,17.15,0,0,0,12.57,6,13.64,13.64,0,0,0,9.89-3.92,13.86,13.86,0,0,0,4-10.4,12.42,12.42,0,0,0-3.46-9.22q-3.45-3.45-9.42-3.46a25.3,25.3,0,0,0-8.76,1.55l-.31-.41,15.15-23.49H102.23v-9.58h35.55L122.22,125.8A19.14,19.14,0,0,1,135.1,131.16Z"/>
  <line x1="69.96" y1="116.38" x2="113.36" y2="72.99"/>
</svg>
