<?xml version="1.0" encoding="utf-8"?>
<!-- Generator: Adobe Illustrator 26.0.3, SVG Export Plug-In . SVG Version: 6.00 Build 0)  -->
<svg version="1.1" id="Main" xmlns="http://www.w3.org/2000/svg" xmlns:xlink="http://www.w3.org/1999/xlink" x="0px" y="0px"
	 viewBox="0 0 675.1 134.7" style="enable-background:new 0 0 675.1 134.7;" xml:space="preserve">
<style type="text/css">
	.st0{fill:none;stroke:#EEEEEE;stroke-width:2;stroke-linejoin:round;stroke-miterlimit:10;}
	.st1{fill:#EEEEEE;stroke:#EEEEEE;stroke-width:2;stroke-miterlimit:10;}
	.st2{fill-rule:evenodd;clip-rule:evenodd;fill:#EEEEEE;stroke:#EEEEEE;stroke-width:2;stroke-miterlimit:10;}
	.st3{fill:#EEEEEE;}
	.st4{font-family:'SourceSansPro-Regular';}
	.st5{font-size:21.3333px;}
	.st6{fill-rule:evenodd;clip-rule:evenodd;fill:#EEEEEE;}
	.st7{font-family:'JosefinSans-Regular';}
	.st8{font-size:62.6667px;}
	.st9{stroke:#000000;stroke-width:3.7;stroke-miterlimit:10;}
</style>
<g>
	<path id="path871" class="st0" d="M143.7,23.6h0.5c0.5,0,1,0.1,1.5,0.1c1,0.1,2,0.1,3,0.2c3.9,0.3,7.6,0.8,11.1,1.4
		c7,1.2,13.1,3,18.7,5.1c11.2,4.2,20.1,9.9,29,15.5c17.9,11.3,35.7,22.6,71.4,22.6"/>
	<path id="path873" class="st1" d="M137.1,23.4c0-1.8,1.6-3.3,3.4-3.2c1.8,0,3.3,1.6,3.2,3.4c0,1.8-1.6,3.3-3.4,3.2
		S137,25.2,137.1,23.4z"/>
	<path id="path877" class="st0" d="M143.7,68.6h16.1c7,0,13.1,0,18.7,0c11.2,0,20.1,0,29,0c17.9,0,35.7,0,71.4,0"/>
	<path id="path879" class="st1" d="M137.1,68.6c0-1.8,1.5-3.3,3.3-3.3s3.3,1.5,3.3,3.3s-1.5,3.3-3.3,3.3S137.1,70.5,137.1,68.6z"/>
	<path id="path883" class="st0" d="M143.7,113.7h0.5c0.5,0,1-0.1,1.5-0.1c1-0.1,2-0.1,3-0.2c3.9-0.3,7.6-0.8,11.1-1.4
		c7-1.2,13.1-3,18.7-5.1c11.2-4.2,20.1-9.9,29-15.6c17.9-11.3,35.7-22.7,71.4-22.7"/>
	<path id="path885" class="st1" d="M137.1,113.9c0-1.8,1.4-3.3,3.2-3.4c1.8,0,3.3,1.4,3.4,3.2c0,1.8-1.4,3.3-3.2,3.4
		C138.6,117.1,137.1,115.7,137.1,113.9z"/>
</g>
<g>
	<path id="path909" class="st2" d="M522.5,71.9l9.1-3.3l-9.1-3.3V71.9z"/>
	<path id="path903" class="st2" d="M522.6,27.1l8.9-3.6l-9.2-3L522.6,27.1z"/>
	<g>
		<path id="path907" class="st0" d="M396.3,68.5c35.7,0,53.6,0,71.4,0c8.9,0,17.9,0,29,0c5.6,0,11.7,0,18.7,0h11.7"/>
		<path id="path901" class="st0" d="M396.3,68.5c35.7,0,53.6-11.3,71.4-22.6c8.9-5.6,17.9-11.3,29-15.5c5.6-2.1,11.7-3.9,18.7-5.1
			c3.5-0.6,7.2-1.1,11.1-1.4h0.6"/>
		<path id="path913" class="st0" d="M396.3,68.5c35.7,0,53.6,11.3,71.4,22.7c8.9,5.7,17.9,11.3,29,15.6c5.6,2.1,11.7,3.9,18.7,5.1
			c3.5,0.6,7.2,1.1,11.1,1.4h0.6"/>
	</g>
	<path id="path915" class="st2" d="M522.4,116.7l9.2-3l-8.9-3.6L522.4,116.7z"/>
</g>
<text transform="matrix(1 0 0 1 38.2209 29.081)" class="st3 st4 st5">Problema</text>
<text transform="matrix(1 0 0 1 30.3911 74.4858)" class="st3 st4 st5">Duomenys</text>
<text transform="matrix(1 0 0 1 61.431 120.0841)" class="st3 st4 st5">Patirtis</text>
<text transform="matrix(1 0 0 1 544.483 29.081)" class="st3 st4 st5">Analizė</text>
<text transform="matrix(1 0 0 1 544.468 74.4866)" class="st3 st4 st5">Infrastruktūra</text>
<text transform="matrix(1 0 0 1 544.6196 120.0834)" class="st3 st4 st5">Algoritmai</text>
<g>
	<path id="path844" class="st6" d="M278.9,68.6L278.9,68.6c0-32.4,26.3-58.7,58.7-58.7l0,0c15.6,0,30.5,6.2,41.5,17.2
		s17.2,25.9,17.2,41.5l0,0c0,32.4-26.3,58.7-58.7,58.7l0,0C305.2,127.3,278.9,101,278.9,68.6z"/>
	<text transform="matrix(1 0 0 1 303.2097 63.4966)" class="st7 st8">3</text>
	<text transform="matrix(1 0 0 1 335.7378 112.9168)" class="st7 st8">3</text>
	<path id="path1713" class="st9" d="M321.6,81l26.6-26.6"/>
</g>
</svg>
