<?xml version="1.0" encoding="utf-8"?>
<!-- Generator: Adobe Illustrator 25.2.1, SVG Export Plug-In . SVG Version: 6.00 Build 0)  -->
<svg version="1.1" id="Main" xmlns="http://www.w3.org/2000/svg" xmlns:xlink="http://www.w3.org/1999/xlink" x="0px" y="0px"
	 viewBox="0 0 641.4 134.7" style="enable-background:new 0 0 641.4 134.7;" xml:space="preserve">
<style type="text/css">
	.st0{fill-rule:evenodd;clip-rule:evenodd;}
	.st1{fill-rule:evenodd;clip-rule:evenodd;fill:#F9F9F9;}
	.st2{fill:none;stroke:#FFFFFF;stroke-width:2;stroke-linejoin:round;stroke-miterlimit:10;}
	.st3{fill-rule:evenodd;clip-rule:evenodd;fill:#FFFFFF;stroke:#FFFFFF;stroke-width:2;stroke-miterlimit:10;}
	.st4{fill:#FFFFFF;stroke:#FFFFFF;stroke-width:2;stroke-miterlimit:10;}
	.st5{fill:#FFFFFF;}
	.st6{font-family:'SourceSansPro-Regular';}
	.st7{font-size:21.3333px;}
	.st8{font-family:'JosefinSans-Regular';}
	.st9{font-size:62.6667px;}
	.st10{stroke:#000000;stroke-width:3.7;stroke-miterlimit:10;}
</style>
<path id="path836" class="st0" d="M0,0h641.4v134.7H0V0z"/>
<path id="path844" class="st1" d="M240.6,68.6L240.6,68.6c0-32.4,26.3-58.7,58.7-58.7l0,0c15.6,0,30.5,6.2,41.5,17.2
	S358,53,358,68.6l0,0c0,32.4-26.3,58.7-58.7,58.7l0,0C266.9,127.3,240.6,101,240.6,68.6z"/>
<path id="path907" class="st2" d="M358,68.6c35.7,0,53.6,0,71.4,0c8.9,0,17.9,0,29,0c5.6,0,11.7,0,18.7,0h11.7"/>
<path id="path909" class="st3" d="M488.8,71.9l9.1-3.3l-9.1-3.3V71.9z"/>
<path id="path871" class="st2" d="M105.4,23.6h0.5c0.5,0,1,0.1,1.5,0.1c1,0.1,2,0.1,3,0.2c3.9,0.3,7.6,0.8,11.1,1.4
	c7,1.2,13.1,3,18.7,5.1c11.2,4.2,20.1,9.9,29,15.5c17.9,11.3,35.7,22.6,71.4,22.6"/>
<path id="path873" class="st4" d="M98.8,23.4c0-1.8,1.6-3.3,3.4-3.2c1.8,0,3.3,1.6,3.2,3.4c0,1.8-1.6,3.3-3.4,3.2
	C100.2,26.7,98.7,25.2,98.8,23.4z"/>
<path id="path877" class="st2" d="M105.4,68.6h16.1c7,0,13.1,0,18.7,0c11.2,0,20.1,0,29,0c17.9,0,35.7,0,71.4,0"/>
<path id="path879" class="st4" d="M98.8,68.6c0-1.8,1.5-3.3,3.3-3.3c1.8,0,3.3,1.5,3.3,3.3s-1.5,3.3-3.3,3.3S98.8,70.5,98.8,68.6z"
	/>
<path id="path883" class="st2" d="M105.4,113.7h0.5c0.5,0,1-0.1,1.5-0.1c1-0.1,2-0.1,3-0.2c3.9-0.3,7.6-0.8,11.1-1.4
	c7-1.2,13.1-3,18.7-5.1c11.2-4.2,20.1-9.9,29-15.6c17.9-11.3,35.7-22.7,71.4-22.7"/>
<path id="path885" class="st4" d="M98.8,113.9c0-1.8,1.4-3.3,3.2-3.4c1.8,0,3.3,1.4,3.4,3.2c0,1.8-1.4,3.3-3.2,3.4
	C100.3,117.1,98.8,115.7,98.8,113.9z"/>
<path id="path901" class="st2" d="M358,68.6c35.7,0,53.6-11.3,71.4-22.6c8.9-5.6,17.9-11.3,29-15.5c5.6-2.1,11.7-3.9,18.7-5.1
	c3.5-0.6,7.2-1.1,11.1-1.4h0.6"/>
<path id="path903" class="st3" d="M488.9,27.1l8.9-3.6l-9.2-3L488.9,27.1z"/>
<path id="path913" class="st2" d="M358,68.6c35.7,0,53.6,11.3,71.4,22.7c8.9,5.7,17.9,11.3,29,15.6c5.6,2.1,11.7,3.9,18.7,5.1
	c3.5,0.6,7.2,1.1,11.1,1.4h0.6"/>
<path id="path915" class="st3" d="M488.7,116.7l9.2-3l-8.9-3.6L488.7,116.7z"/>
<text transform="matrix(1 0 0 1 12.8059 30.0811)" class="st5 st6 st7">Problem</text>
<text transform="matrix(1 0 0 1 48.1338 75.4243)" class="st5 st6 st7">Data</text>
<text transform="matrix(1 0 0 1 7.1888 121.0841)" class="st5 st6 st7">Expertise</text>
<text transform="matrix(1 0 0 1 509.7735 30.0732)" class="st5 st6 st7">Analysis</text>
<text transform="matrix(1 0 0 1 509.7585 75.4866)" class="st5 st6 st7">Infrastructure</text>
<text transform="matrix(1 0 0 1 509.9101 120.7465)" class="st5 st6 st7">Algorithms</text>
<text transform="matrix(1 0 0 1 264.955 63.4966)" class="st8 st9">3</text>
<text transform="matrix(1 0 0 1 297.4831 112.9168)" class="st8 st9">3</text>
<path id="path1713" class="st10" d="M283.3,81l26.6-26.6"/>
</svg>
